<?xml version="1.0" encoding="utf-8"?>
<!-- Generator: Adobe Illustrator 24.3.0, SVG Export Plug-In . SVG Version: 6.00 Build 0)  -->
<svg version="1.1" id="Layer_1" xmlns="http://www.w3.org/2000/svg" xmlns:xlink="http://www.w3.org/1999/xlink" x="0px" y="0px"
	 viewBox="0 0 595.3 389" style="enable-background:new 0 0 595.3 389;" xml:space="preserve">
<style type="text/css">
	.st0{fill:#181819;}
	.st1{fill:url(#SVGID_1_);}
	.st2{fill:#FFFFFF;}
</style>
<path class="st0" d="M298.5,44.8h4.2L314,45l11.2,0.5l13.8,1l15.2,1.5l16.8,2.2l10.5,1.8l10,2l3.5,0.8l5,3.8l4,3.2l2.5,2l4,3.2
	l3.5,3l3,2.8l2,1.8l3,2.8l4,3.8l3,2.8l2,2l2,1.8l2.8,2.2L438,91l1.8,0.2l2.5-2.2l2.2-2.5l3-2.8l4-2.5l2.8-1.2l3.8-0.8h5.2l4.5,1
	l4.8,1.8l4.8,2.2l2,1.5l-0.8,3l-1.2,3.2l-2,4l-1.5,2l-2,2l-5,2.8l-7.8,3l-2.8,1H454l-10.5-1l-3.8-0.2H432l-8.8,0.8l-4.2,1l-3,1.2
	l-5.8,3l-7.5,5l-4.5,3.2l-4.5,3.5l-3.8,3l-5,3.8l-4.5,3.2l-4,3l-0.2,1.2l1,1.2l1.8-0.2l3.8-2.5l2.8-2l4-3l4.5-3.5l4-3.2l4.8-3.5
	l3.8-2.8l4.8-3l4.2-2.5l3.2-1.5l2.2-0.8l5.2-1l4.2-0.2h10.2l8.8,0.8l12.5,1.8l5.8,1.2l6.5,2.2l4,2l2.8,1.8l1.8,2l0.5,1.2v2.5l-1.5,6
	l-2.5,8.2l-1.5,6.5l-0.5,2.8v3.5l1,3.5l1.8,2.2l3,2v64l-74,0.2l-1.8,0.2l-3.5-3l-2.8-2.2l-2.5-2.2l-2.8-2.2l-3.2-2.8l-3-1.5
	l-0.8-0.2H384l-7.2,1.5l-17.2,3l-9.8,1.2L334,217l-11.8,0.8l-6.5,0.2H289l-14.5-0.8l-8.5-0.8l-11.8-1.2l-11.2-1.5l-19.8-3.5l-5-1
	h-2.8l-2.8,1l-2.2,1.8l-3,2.8l-2,1.8l-3,2.8H202v0.5l-2.8,2.2l-1.8,1.5l-0.5,0.2h-76.2l-0.2-11.8v-52.8l2.8-2.8l1-2l0.8-4.2v-2.8
	l-0.5-5l-1-5.2l-2-7.8l-1-4.8v-3l1-1.8l2.2-2l3.2-2l6-2.2l5-1.5l5-1l11.2-1.5l9.5-0.8h9l5,0.2l6,1.2l3.8,1.5l4.5,2.8l4.8,3l3.5,2.5
	l3,2.2l3.5,2.8l3.2,2.5l3.5,2.8l4.2,3.2l3.5,2.5l3.8,2.5h1.5l0.8-1v-1.2l-2.5-2.2l-3-2l-4.8-3.5l-3.5-2.8l-4.5-3.5l-3-2.2l-4.8-3.5
	l-7.5-5l-6.5-3.5L184,107l-3.8-0.8l-5-0.5l-7-0.2L157,106h-2.8l-14.2-1.2l-5-0.8l-2.8-1l-1.8-1.5L129,99l-1.2-4l-1.2-5l-1-3.2l0.2-1
	l2.8-2.2l4-2l3.2-1.2l3.5-0.8l3.8-0.2l4.5,0.5l4.8,1.8L155,83l2.5,2l3,2.8l2.8,3l1.5,0.5l2.2-0.8l2.5-2l3.8-3.2l4.5-4.5l2-1.8l3.2-3
	l3.5-3.2l2-1.8l2.8-2.5l3.5-2.8L198,63l3.2-2.5l3.8-3l2.2-1.8l1.5-1l8-1.8l8.8-1.8l20.5-3l8-1l16.2-1.2l16.2-1L298.5,44.8z"/>
<path class="st0" d="M296.8,57h12l11.2,0.2l15.5,0.8l10.8,1l20.2,2.8l8.8,1.5l12,2.2l1.5,0.5l1.5,1.8l2,1.8l2.2,2.2l2,1.8L400,77
	l0.5,0.2v0.5l1,0.5l3.5,3.5l2,1.8l3,3l2,1.8v0.5l1,0.5l2.2,2l1,1.2l-0.5,1l-3,2l-3.2,2l-5.5,3.2l-4.8,2.5l-6,2.5l-3.8,1.5l-1.8,0.5
	h-10l-0.8-0.5l-1.8-6.2l-1.2-4.8l-1.5-4l-2-4.2l-2.2-3l-1.8-1.8l-3-1.8l-3-0.8l-2.2-0.2h-6.8l-4,1l-3,1.8l-2.2,2.5l-2.2,3.5l-1.8,4
	l-1.5,4l-2.2,7.5l-1,2.8l-0.2,0.2H271l-0.5-0.2l-2-6.8l-1.8-6.2l-1.8-4.2l-1.8-3.2l-2-2.5l-2-1.8l-2.5-1.2l-2.8-0.8l-2.2-0.2H245
	l-3.5,0.8l-2.5,1.2l-2.2,1.8L234,88l-2,4l-2.5,7.5l-1.8,6.8l-0.8,1.5h-10.8l-3-0.8l-6.5-2.8l-3.5-1.5l-3.5-2l-2.8-1.5l-5.5-3.2l-4-3
	v-1l2.5-2.2l4.2-4L197,83l2-1.8l2.2-2.2l2-1.8l2-2l2-1.8l2-2l2-1.8L215,66l2.8-0.8l16.8-3l17-2.2l11-1.2l9.8-0.8l13.5-0.8L296.8,57z
	"/>
<linearGradient id="SVGID_1_" gradientUnits="userSpaceOnUse" x1="771" y1="169.625" x2="772" y2="169.625">
	<stop  offset="0" style="stop-color:#FFFFFF"/>
	<stop  offset="1" style="stop-color:#000000"/>
</linearGradient>
<path class="st1" d="M346.8,153h21.5l1,1l-0.2,2.5l-1.5,5l-2.2,4.2l-2.5,3.5l-2.8,3.2l-2.8,2.5l-5.2,3.5l-5.2,2.5l-5.2,1.8
	l-10.8,2.2l-6.5,0.8l-4.8,0.2l-32.5,0.2l-8.2-0.2l-6.2-0.5l-8.5-1.8l-6.8-2l-4-1.8l-3.8-2l-3.5-2.8l-3-2.8l-2.5-3l-3-4.8l-1.8-3.8
	l-1.5-4.8l0.2-1.5l1.2-0.8l40.2-0.5L346.8,153z"/>
<path class="st2" d="M300.8,53.2l15.8,0.2L328,54l13.8,1l11.5,1.2l13.2,1.8l7.2,1.2l11.8,2.2l4.5,1l2.5,2.2l2,2L395,67v0.5l1,0.5
	l3.2,3.2l2,1.8l1.8,1.5V75l1,0.5l4,4l4,3.5v0.5l1,0.5l3.2,3.2l4,3.5l1.2,2L421,94l-2.5,2.2l-4.8,3l-4,2.5l-3.5,2l-7.5,3.8l-5,2
	l-2.8,1.2l-1.8,0.5l-2.8,0.2H237.2l-22.8-0.2l-4.2-1.5L204,107l-4-2l-4.2-2l-3.2-2l-3.5-2.2l-3.8-2.5l-2.5-2l-0.5-1l0.2-1.2l1.5-1.8
	l2-1.8l2.2-2.2l2-1.8l2.5-2.5l2-1.8l4.2-4l2.2-2.2l2-1.8l3-3l2-1.8l2.2-2.2l2-1.8l1.2-1l3-0.8l15.5-2.8l8.8-1.2l17.2-2.2l11.2-1
	l13.2-0.8l6.5-0.2L300.8,53.2z M296.8,57l-11,0.2L272.2,58l-9.8,0.8l-17,2L233,62.5l-16.5,3l-1.8,0.8l-5,5l-2,1.8l-2,2l-2,1.8l-2,2
	l-2,1.8l-2.2,2.2l-2,1.8L192,88l-2,1.8l-1.2,1l-1.2,1.2v1l3.2,2.5l7.5,4.5l6,3.2l6.5,2.8l4,1.5l1.5,0.2H227l1-2.5l2.2-8.2l2-5.5
	L234,88l2.2-3l1-1.2l3-2l3-1l1.8-0.2h6.8l3.5,0.5l2.8,1l2.8,2l2,2.2l2,3.5l1.8,4l1.8,6l2,7l0.2,0.8l0.5,0.2h62.2l1-2.2l2.2-7.2
	l1.2-3.8l2.2-5.2l1.8-2.8l2.2-2.8l2.5-1.8l2.5-1l2.5-0.5h6.8l3.5,0.5l2.8,1l2.5,1.8l1.8,1.8L371,89l2.2,5l1.5,4.8l1.5,6l0.8,2.5
	l0.8,0.5h10l4.5-1.5l4.5-2l3.5-1.5l5.5-3l5.5-3.2l3-2l2-1.5l-0.2-1l-1.2-1.2l-2.2-2H412l-0.5-1l-3.8-3.5l-2.2-2.2l-2-1.8l-2.5-2.5
	h-0.5v-0.5l-2-1.8L395,72l-2-1.8l-2.2-2.2l-1.8-1.5l-0.2-0.5l-2.8-0.8l-14.8-2.8l-12-1.8l-15.2-2l-8.5-0.8L320,57.2L308.8,57H296.8z
	"/>
<path class="st0" d="M423,227h60.2v4.8l-0.2,4.5l-0.8,3.5l-1.8,3.5l-2,2.5l-2,1.8l-3.5,1.8l-2.8,0.5h-34.5l-2.8-0.5l-3.2-1.8
	l-2.5-2.2l-2-2.8l-1.5-3.5l-0.8-3.5V227z"/>
<path class="st0" d="M120.8,227.2h45.8l14.2,0.2v6.5l-0.5,3.5l-1.2,4l-1.2,2.2l-2.2,2.8l-2.5,1.8l-2.8,1.2l-0.8,0.2l-4,0.2h-31.2
	l-3.2-0.5l-3-1.2l-2.8-2l-2-2.5l-1.2-2l-1-3l-0.5-3.8v-7.5L120.8,227.2z"/>
<path class="st0" d="M364.5,156.5h0.5l-0.2,1.2l-1.2,3.2l-1.5,2.8l-0.8,0.8l-7.8,0.8L330,167l-16.2,0.8l-11.2,0.2h-17l-20.5-0.8
	l-10.5-0.8l-12-1l-1.5-2l-1.8-3.5l-0.8-2.2l3.2-0.2l64.8-0.5L364.5,156.5z"/>
<path class="st2" d="M153.2,126.2l2.2,0.2l6.5,2l6.8,2l4.5,1.5l6.8,2l4.5,1.5l6,1.8l7.8,2.5l4.8,1.5l1.5,3.5l2.5,6.2l2,5.2l1,2.5
	v1.5l-1,1h-9.8l-6.5-0.8l-5.2-1.2l-7.5-2.5l-6.2-3.2l-4-2.8l-2.5-2l-4-3.8l-2.8-3l-3-4l-2.8-4.2l-2.5-4.8l-0.2-1.2L153.2,126.2z"/>
<path class="st2" d="M449.2,126.2h1.2l0.8,1v1.8l-2,4.2l-1.8,2.5l-1.8,2.8L443,142l-2.2,2.5l-3.2,3.2l-2.8,2.2l-4.2,3l-4,2.2
	L423,157l-7,2.2l-6.2,1.5l-7.8,0.8h-6l-2-0.5l-0.5-1.2l0.2-1.2l3.2-8.5l1.5-3.8l2-4.8l2.2-1l7.5-2.2L424,134l16.2-5l6-1.8
	L449.2,126.2z"/>
<path class="st0" d="M356.8,168.5h1.2l-0.5,1l-1.8,1.8l-4.8,3.5l-5.8,2.8l-5.2,1.8l-6.5,1.5l-5.2,0.8l-4,0.5l-3.5,0.2l-24,0.2h-13.5
	l-5.8-0.2l-7.8-1l-5.5-1.2l-6.8-2.2l-5.2-2.5l-3-2.2l-3.2-3v-0.2h2.5l9.2,0.8l9.2,0.5l18,0.5h19l12.8-0.2l14-0.8l22.2-1.8
	L356.8,168.5z"/>
<path class="st0" d="M278,271.8h4.2l4.2,0.5l3.5,1.2l2,1.5l1.2,1.5l1,2.5l0.2,1v6l-0.8,2.5l-1,2l-1.8,1.8l-1.2,0.5l0.8,1.8l4,6.8
	l0.8,1.5v1L292,304h-4.2l-0.8-0.2l-3.2-5.5l-2.2-3.8l-0.2-0.5l-6.2-0.2l-3.2-0.5l-0.2,10.5l-0.2,0.2h-7.5l-0.2-14.2v-17l5.2-0.5
	L278,271.8z"/>
<path class="st0" d="M308.8,272.5h2.8l0.5,0.5l4.2,14.2l1.8,5.5l0.5-1l2.5-7.8l2.2-7.8l1.2-3.5l2.2-0.2h3l0.8,1.2l1.5,4.5l2.2,7.8
	l2,6.5l0.2,0.2l1.8-5.2l2.8-9l1.8-5.8h7.2l-0.2,2.2l-2.5,6.8l-2.2,6.5l-3.2,9l-1.5,3.8l-1,2.8l-0.8,0.2H334l-1-2l-2.2-7.2l-2-6
	l-1.2-4.2V284l-0.5,0.2l-3.2,10.8l-1.8,5.2l-1,3.5l-1.8,0.2h-3.5l-1-1.5l-1.8-5.2l-2-5.2l-2.5-7l-3.2-9.2l-0.5-1.5v-1.5L308.8,272.5
	z"/>
<path class="st0" d="M244.2,84.2h9.2l3,1l2,1.5l1.8,2l2.2,4L264,97l2.2,8.8l0.5,2h-35.2l-0.2-0.8l2.2-8.5l2.2-6.2l1.8-3.2l2.8-3
	l2.5-1.2L244.2,84.2z"/>
<path class="st0" d="M351,84.2h9l2.5,0.8l2.5,1.5l2.2,2.8l2,4l2,6l2,8v0.5H338l-0.5-0.2l0.8-2.8l2.2-7.5l2-5l2.2-4l2.5-2.5l2.8-1.2
	L351,84.2z"/>
<path class="st0" d="M235,272.5h3l0.8,0.2l3,6.8l8,17l2.2,5.2l0.2,2l-2,0.2h-5l-0.5-0.2l-2-4.8l-0.2-1.2h-16.2l-0.8,2.5l-1.2,3.2
	l-0.8,0.5h-4.2l-2.8-0.2l0.2-1.8l2.2-5.2l3-6.2l3.2-7l4-8.5l1-2.2L235,272.5z"/>
<path class="st0" d="M374.5,272.5h2.2l1,0.5l6.5,14l4,8.5l2.8,6.2l0.2,1.8l-0.2,0.2l-6.8,0.2l-0.8-0.8l-2-5v-0.5h-16.2l-0.5,2
	l-1.8,4l-0.5,0.2h-4l-3-0.2l0.2-1.8l2.2-5.2l4.2-9l4.5-9.5l2-4.5l0.5-1L374.5,272.5z"/>
<path class="st0" d="M240.8,323.2H362l1.2,1.2l0.2,1.8l-1,1.5H240.8l-1-1l-0.2-1.5l0.8-1.5L240.8,323.2z"/>
<path class="st0" d="M191,271.8h5.2l5.8,0.8l3.8,1l0.2,0.2v7l-1.8-0.2l-4.5-1l-4.5-0.5h-3.8l-3,0.5l-2,1l-1.2,1.5l-0.8,2.2v7.8
	l0.8,2.5l1.5,1.8l2.5,1l1.5,0.2h4.2l5.5-0.5l5.5-1.2v7.2l-2.2,0.8l-5.2,0.8l-3,0.2h-4.2L186,304l-3-1l-3.2-2.2l-2-2.8l-1.2-3
	l-0.8-3.8v-5.8l0.8-4l1.2-3l2-2.8l3-2l3.2-1.2L191,271.8z"/>
<path class="st2" d="M162,182h4l4.2,0.8l2.5,1l2.8,2l1.8,2l1,2l0.2,1v2.5l-0.8,2.2l-2.2,2.8L173,200l-3.8,1.2l-2,0.5L165,202h-2.2
	l-4.2-0.8l-3.2-1.2l-2.2-1.5l-2-2l-1.2-2.8V190l1.2-2.5l1.5-1.8l3.2-2.2l3-1L162,182z"/>
<path class="st2" d="M438.2,183h2.5l3.5,0.5l3,1.2l3,1.8l1.8,2l1,2l0.2,1.2v2l-1,2.5l-1.8,2.2l-2,1.5l-2.8,1.2l-4.2,1h-3.8l-3.8-0.8
	l-3-1.2l-2.2-1.5l-1.8-2l-1-2l-0.2-1.2v-2l0.8-2.2l1.8-2.2l2.2-1.8l3.5-1.5l2-0.5L438.2,183z"/>
<path class="st0" d="M400,272.5h3l1.5,2.2l2,3.5l1.5,2.2l3,4.8l0.5,0.2l0.5-1.2l2.8-4.2l2.5-4l1.5-2.2l0.5-1l0.8-0.2h4.8l2.8,0.2
	L427,275l-6,9l-4.2,6.2l-1.2,1.8l-0.2,11.5L415,304h-7.2l-0.5-0.2l-0.2-10.5l-0.5-1.8l-4-6l-2.8-4l-4-6L395,274v-1.2L400,272.5z"/>
<path class="st0" d="M314.8,347.5h4.2l2.5,0.8l1.2,1.2l0.8,1.8v1.8l-0.8,2.2l-1,1l0.2,1.2l1.5,2.5v0.8h-3l-1.8-2.2l-0.8-1.2
	l-4.2-0.2v3.8h-3.2l-0.2-0.5v-5l0.2-7.2l0.8-0.2L314.8,347.5z"/>
<path class="st2" d="M273,279h11.2l1.5,0.8l0.8,1.2v3.5l-1.2,1.5l-1.2,0.5l-3.5,0.2H274l-2.2-0.2l-0.2-2.8l0.2-4.5L273,279z"/>
<path class="st0" d="M299.2,347.5h2.8l0.8,0.8l2.8,6l2.2,5l0.2,1.5h-3.2l-0.8-2h-6.8l-1,1.8l-0.5,0.2h-2.5l0.2-1.5l3.8-8.2l1.5-3.2
	L299.2,347.5z"/>
<path class="st0" d="M284,347.5h3.2l3.2,0.8l0.5,1.2v1.5h-7.5l-1.2,0.8l-0.2,0.5v3.8l0.8,1.2l1,0.2h7.2l-0.2,2.5l-2.8,0.8h-4.8
	l-2.8-1L279,358l-0.5-1.2l-0.2-1.5V353l0.8-2.5l1-1.5l2-1L284,347.5z"/>
<path class="st2" d="M234.2,280l0.8,0.8l3,6.8l1.2,2.8v0.2l-8.5,0.2l-1-0.2l0.8-2.2l1.8-3.8l1.8-4.2L234.2,280z"/>
<path class="st2" d="M373,280l1,0.5l2.5,6l1.8,3.8v0.2h-9.5l0.8-2.2l1.8-3.8L373,280z"/>
<path class="st2" d="M313,350.8h5.8l0.5,0.2v2.5l-0.8,0.2h-5l-0.5-0.2V350.8z"/>
<path class="st2" d="M300.5,351l0.8,1l1.2,2.5v1H299l-0.5-0.5L300.5,351z"/>
</svg>
